<?xml version="1.0" standalone="no"?>
<!DOCTYPE svg PUBLIC "-//W3C//DTD SVG 20010904//EN"
 "http://www.w3.org/TR/2001/REC-SVG-20010904/DTD/svg10.dtd">
<svg version="1.0" xmlns="http://www.w3.org/2000/svg"
 width="871.000000pt" height="176.000000pt" viewBox="0 0 871.000000 176.000000"
 preserveAspectRatio="xMidYMid meet">

<g transform="translate(0.000000,176.000000) scale(0.100000,-0.100000)"
fill="#000000" stroke="none">
<path d="M1844 1728 c-19 -23 -19 -23 2 -6 19 17 21 17 39 0 19 -17 19 -17 1
6 -11 12 -20 22 -21 22 -1 0 -10 -10 -21 -22z"/>
<path d="M337 1673 c-3 -5 16 -7 41 -5 73 5 82 10 20 11 -31 0 -59 -2 -61 -6z"/>
<path d="M465 1602 l0 -67 -65 0 -65 0 -6 60 -6 60 -1 -55 c-1 -33 3 -61 10
-68 7 -7 37 -12 68 -12 31 0 61 5 68 12 13 13 17 124 5 131 -5 3 -8 -25 -8
-61z"/>
<path d="M630 1641 c0 -5 7 -15 17 -22 15 -13 15 -12 4 9 -12 23 -21 28 -21
13z"/>
<path d="M3528 1643 c7 -3 16 -2 19 1 4 3 -2 6 -13 5 -11 0 -14 -3 -6 -6z"/>
<path d="M4511 1646 c2 -2 20 -6 39 -10 25 -4 31 -3 20 4 -14 9 -69 15 -59 6z"/>
<path d="M5222 1633 c-4 -10 -5 -36 -1 -58 l6 -40 3 40 c1 22 2 44 1 49 -1 5
4 13 11 17 9 6 10 9 1 9 -7 0 -16 -8 -21 -17z"/>
<path d="M6313 1643 c9 -2 25 -2 35 0 9 3 1 5 -18 5 -19 0 -27 -2 -17 -5z"/>
<path d="M7828 1643 c7 -3 16 -2 19 1 4 3 -2 6 -13 5 -11 0 -14 -3 -6 -6z"/>
<path d="M3589 1629 c-2 -29 3 -74 9 -81 4 -4 6 13 5 38 -1 43 -12 74 -14 43z"/>
<path d="M3719 1629 c-2 -29 3 -74 9 -81 4 -4 6 13 5 38 -1 43 -12 74 -14 43z"/>
<path d="M4699 1629 c-2 -29 3 -74 9 -81 4 -4 6 13 5 38 -1 43 -12 74 -14 43z"/>
<path d="M3500 1620 c0 -5 11 -17 25 -26 33 -21 32 -42 -2 -47 l-28 -4 28 -2
c42 -2 46 25 8 59 -17 16 -31 25 -31 20z"/>
<path d="M7800 1620 c0 -5 11 -17 25 -26 33 -21 32 -42 -2 -47 l-28 -4 28 -2
c42 -2 46 25 8 59 -17 16 -31 25 -31 20z"/>
<path d="M748 1613 c6 -2 18 -2 25 0 6 3 1 5 -13 5 -14 0 -19 -2 -12 -5z"/>
<path d="M849 1612 c6 -2 12 -20 12 -40 l2 -37 6 34 c4 21 13 37 26 41 14 5 8
7 -19 7 -21 -1 -34 -3 -27 -5z"/>
<path d="M952 1608 c-24 -24 -6 -69 27 -67 10 0 7 4 -6 9 -31 13 -29 30 5 31
l27 1 -30 8 c-24 5 -27 8 -13 14 9 4 22 4 29 0 8 -4 9 -3 5 4 -9 15 -29 15
-44 0z"/>
<path d="M3648 1613 c6 -2 18 -2 25 0 6 3 1 5 -13 5 -14 0 -19 -2 -12 -5z"/>
<path d="M3762 1590 c0 -19 2 -27 5 -17 2 9 2 25 0 35 -3 9 -5 1 -5 -18z"/>
<path d="M3810 1590 c0 -22 -6 -33 -22 -40 -22 -8 -21 -9 5 -7 24 1 27 5 27
39 0 21 -2 38 -5 38 -3 0 -5 -14 -5 -30z"/>
<path d="M3845 1610 c-8 -13 12 -40 29 -40 6 0 3 5 -6 11 -10 5 -18 14 -18 19
0 5 8 11 18 13 15 4 15 5 0 6 -9 0 -20 -4 -23 -9z"/>
<path d="M4581 1599 c-1 -31 -16 -45 -51 -52 l-25 -4 26 -2 c33 -1 62 30 56
61 -4 22 -4 21 -6 -3z"/>
<path d="M4628 1613 c6 -2 18 -2 25 0 6 3 1 5 -13 5 -14 0 -19 -2 -12 -5z"/>
<path d="M4752 1608 c-24 -24 -6 -69 28 -67 9 0 6 4 -7 9 -31 13 -29 30 5 31
l27 1 -30 8 c-24 5 -27 8 -13 14 9 4 22 4 29 0 8 -4 9 -3 5 4 -9 15 -29 15
-44 0z"/>
<path d="M4899 1612 c6 -2 12 -20 12 -40 l2 -37 6 34 c4 21 13 37 26 41 14 5
8 7 -19 7 -21 -1 -34 -3 -27 -5z"/>
<path d="M5002 1608 c-24 -24 -6 -69 28 -67 9 0 6 4 -7 9 -14 6 -23 18 -23 30
0 12 9 24 23 30 13 5 16 9 7 9 -9 1 -21 -4 -28 -11z"/>
<path d="M5092 1608 c-22 -22 -7 -68 22 -68 5 0 2 6 -8 13 -25 18 -17 52 11
51 12 0 20 3 17 8 -7 12 -28 10 -42 -4z"/>
<path d="M5312 1608 c-24 -24 -6 -69 28 -67 9 0 6 4 -7 9 -31 13 -29 30 5 31
l27 1 -30 8 c-24 5 -27 8 -13 14 9 4 22 4 29 0 8 -4 9 -3 5 4 -9 15 -29 15
-44 0z"/>
<path d="M5392 1608 c-22 -22 -7 -68 22 -68 5 0 2 6 -8 13 -25 18 -17 52 11
51 12 0 20 3 17 8 -7 12 -28 10 -42 -4z"/>
<path d="M6478 1613 c7 -3 16 -2 19 1 4 3 -2 6 -13 5 -11 0 -14 -3 -6 -6z"/>
<path d="M6542 1608 c-24 -24 -6 -69 28 -67 9 0 6 4 -7 9 -31 13 -29 30 5 31
l27 1 -30 8 c-24 5 -27 8 -13 14 9 4 22 4 29 0 8 -4 9 -3 5 4 -9 15 -29 15
-44 0z"/>
<path d="M7938 1613 c13 -3 19 -9 16 -15 -4 -7 -2 -8 4 -4 21 13 13 26 -15 25
-24 -2 -25 -2 -5 -6z"/>
<path d="M8002 1608 c-24 -24 -6 -69 28 -67 9 0 6 4 -7 9 -31 13 -29 30 5 31
l27 1 -30 8 c-24 5 -27 8 -13 14 9 4 22 4 29 0 8 -4 9 -3 5 4 -9 15 -29 15
-44 0z"/>
<path d="M669 1585 c17 -33 31 -51 31 -40 0 6 -10 21 -21 35 -13 17 -17 18
-10 5z"/>
<path d="M757 1588 c-36 -13 -33 -43 6 -44 23 -1 27 3 27 27 0 16 -1 29 -2 28
-2 0 -16 -5 -31 -11z m23 -18 c0 -12 -28 -25 -36 -17 -9 9 6 27 22 27 8 0 14
-5 14 -10z"/>
<path d="M912 1570 c0 -19 2 -27 5 -17 2 9 2 25 0 35 -3 9 -5 1 -5 -18z"/>
<path d="M3657 1588 c-36 -13 -33 -43 6 -44 23 -1 27 3 27 27 0 16 -1 29 -2
28 -2 0 -16 -5 -31 -11z m23 -18 c0 -12 -28 -25 -36 -17 -9 9 6 27 22 27 8 0
14 -5 14 -10z"/>
<path d="M4637 1588 c-36 -13 -33 -43 6 -44 23 -1 27 3 27 27 0 16 -1 29 -2
28 -2 0 -16 -5 -31 -11z m23 -18 c0 -12 -28 -25 -36 -17 -9 9 6 27 22 27 8 0
14 -5 14 -10z"/>
<path d="M4962 1570 c0 -19 2 -27 5 -17 2 9 2 25 0 35 -3 9 -5 1 -5 -18z"/>
<path d="M5052 1580 c0 -14 2 -19 5 -12 2 6 2 18 0 25 -3 6 -5 1 -5 -13z"/>
<path d="M6501 1583 c0 -12 -9 -27 -18 -32 -10 -6 -13 -11 -7 -11 18 0 36 27
31 47 -4 14 -5 14 -6 -4z"/>
<path d="M6381 1575 c0 -5 4 -19 8 -29 7 -19 8 -19 13 2 4 12 2 20 -2 17 -5
-3 -11 1 -13 7 -3 7 -5 9 -6 3z"/>
<path d="M7932 1568 c-19 -19 -14 -28 16 -27 24 2 24 2 4 6 -19 4 -21 7 -11
19 14 17 8 19 -9 2z"/>
<path d="M3848 1543 c7 -3 16 -2 19 1 4 3 -2 6 -13 5 -11 0 -14 -3 -6 -6z"/>
<path d="M3548 1243 c7 -3 16 -2 19 1 4 3 -2 6 -13 5 -11 0 -14 -3 -6 -6z"/>
<path d="M3499 1223 c-13 -16 -12 -17 4 -4 9 7 17 15 17 17 0 8 -8 3 -21 -13z"/>
<path d="M3600 1220 c11 -11 20 -31 20 -45 0 -14 -9 -34 -20 -45 -11 -11 -16
-20 -11 -20 15 0 41 42 41 65 0 23 -26 65 -41 65 -5 0 0 -9 11 -20z"/>
<path d="M702 1173 l1 -58 6 45 7 45 19 -45 19 -44 20 44 21 45 6 -45 6 -45 1
58 c1 31 -2 57 -7 57 -5 0 -16 -18 -25 -40 -9 -22 -18 -40 -21 -40 -3 0 -12
18 -21 40 -9 22 -20 40 -25 40 -5 0 -8 -26 -7 -57z"/>
<path d="M831 1173 c1 -32 4 -48 6 -36 3 13 13 23 26 25 17 2 22 10 22 33 0
25 -4 30 -27 33 -28 3 -28 3 -27 -55z m47 25 c-5 -34 -38 -37 -38 -4 0 20 5
26 21 26 15 0 20 -5 17 -22z"/>
<path d="M916 1221 c-4 -5 3 -7 14 -4 15 4 20 0 20 -16 0 -13 -7 -21 -17 -22
-13 0 -12 -3 5 -10 29 -11 24 -31 -9 -40 -22 -6 -22 -7 -3 -8 28 -1 50 24 36
42 -7 8 -7 18 -2 27 5 9 5 19 -2 27 -12 15 -34 17 -42 4z"/>
<path d="M4513 1223 c9 -2 25 -2 35 0 9 3 1 5 -18 5 -19 0 -27 -2 -17 -5z"/>
<path d="M4650 1226 c0 -2 9 -6 20 -9 11 -3 18 -1 14 4 -5 9 -34 13 -34 5z"/>
<path d="M4870 1226 c0 -2 9 -6 20 -9 11 -3 18 -1 14 4 -5 9 -34 13 -34 5z"/>
<path d="M5030 1226 c0 -2 9 -6 20 -9 11 -3 18 -1 14 4 -5 9 -34 13 -34 5z"/>
<path d="M5340 1226 c0 -2 9 -6 20 -9 11 -3 18 -1 14 4 -5 9 -34 13 -34 5z"/>
<path d="M5423 1223 c9 -2 25 -2 35 0 9 3 1 5 -18 5 -19 0 -27 -2 -17 -5z"/>
<path d="M5540 1226 c0 -2 11 -6 25 -8 13 -3 22 -1 19 3 -5 9 -44 13 -44 5z"/>
<path d="M5620 1221 c0 -6 4 -13 10 -16 6 -3 7 1 4 9 -7 18 -14 21 -14 7z"/>
<path d="M6318 1223 c6 -2 18 -2 25 0 6 3 1 5 -13 5 -14 0 -19 -2 -12 -5z"/>
<path d="M6582 1213 c-4 -10 -5 -36 -1 -58 l6 -40 3 40 c1 22 2 44 1 49 -1 5
4 13 11 17 9 6 10 9 1 9 -7 0 -16 -8 -21 -17z"/>
<path d="M4734 1208 c-4 -6 -3 -8 4 -4 7 4 12 -10 15 -41 l3 -48 2 53 c2 49
-8 66 -24 40z"/>
<path d="M5221 1194 c0 -11 3 -14 6 -6 3 7 2 16 -1 19 -3 4 -6 -2 -5 -13z"/>
<path d="M5272 1180 c0 -19 2 -27 5 -17 2 9 2 25 0 35 -3 9 -5 1 -5 -18z"/>
<path d="M6470 1196 c0 -2 9 -6 20 -9 11 -3 18 -1 14 4 -5 9 -34 13 -34 5z"/>
<path d="M6632 1188 c-24 -24 -6 -69 28 -67 9 0 6 4 -7 9 -14 6 -23 18 -23 30
0 12 9 24 23 30 13 5 16 9 7 9 -9 1 -21 -4 -28 -11z"/>
<path d="M6860 1196 c0 -2 9 -6 20 -9 11 -3 18 -1 14 4 -5 9 -34 13 -34 5z"/>
<path d="M3481 1174 c0 -11 3 -14 6 -6 3 7 2 16 -1 19 -3 4 -6 -2 -5 -13z"/>
<path d="M3560 1175 c-7 -8 -17 -12 -23 -8 -6 4 -7 1 -3 -6 6 -9 13 -8 27 5
10 9 19 19 19 21 0 7 -8 2 -20 -12z"/>
<path d="M5102 1170 c0 -14 2 -19 5 -12 2 6 2 18 0 25 -3 6 -5 1 -5 -13z"/>
<path d="M5120 1186 c0 -2 9 -6 20 -9 11 -3 18 -1 14 4 -5 9 -34 13 -34 5z"/>
<path d="M6318 1173 c6 -2 18 -2 25 0 6 3 1 5 -13 5 -14 0 -19 -2 -12 -5z"/>
<path d="M6450 1160 c0 -21 20 -40 40 -39 9 0 6 4 -7 9 -31 13 -29 28 5 32 26
3 26 4 -5 9 -26 4 -33 2 -33 -11z"/>
<path d="M6682 1160 c0 -14 2 -19 5 -12 2 6 2 18 0 25 -3 6 -5 1 -5 -13z"/>
<path d="M6752 1160 c0 -14 2 -19 5 -12 2 6 2 18 0 25 -3 6 -5 1 -5 -13z"/>
<path d="M6840 1160 c0 -21 20 -40 40 -39 9 0 6 4 -7 9 -31 13 -29 28 5 32 26
3 26 4 -5 9 -26 4 -33 2 -33 -11z"/>
<path d="M5238 1163 c7 -3 16 -2 19 1 4 3 -2 6 -13 5 -11 0 -14 -3 -6 -6z"/>
<path d="M5548 1163 c7 -3 16 -2 19 1 4 3 -2 6 -13 5 -11 0 -14 -3 -6 -6z"/>
<path d="M3490 1136 c0 -2 8 -10 18 -17 15 -13 16 -12 3 4 -13 16 -21 21 -21
13z"/>
<path d="M4640 1128 c0 -4 14 -8 30 -8 17 0 30 2 30 4 0 2 -13 6 -30 8 -16 3
-30 1 -30 -4z"/>
<path d="M4860 1128 c0 -4 14 -8 30 -8 17 0 30 2 30 4 0 2 -13 6 -30 8 -16 3
-30 1 -30 -4z"/>
<path d="M5020 1128 c0 -4 14 -8 30 -8 17 0 30 2 30 4 0 2 -13 6 -30 8 -16 3
-30 1 -30 -4z"/>
<path d="M5118 1128 c5 -5 16 -8 23 -6 8 3 3 7 -10 11 -17 4 -21 3 -13 -5z"/>
<path d="M5245 1130 c-16 -7 -17 -9 -3 -9 9 -1 20 4 23 9 7 11 7 11 -20 0z"/>
<path d="M5330 1128 c0 -4 14 -8 30 -8 17 0 30 2 30 4 0 2 -13 6 -30 8 -16 3
-30 1 -30 -4z"/>
<path d="M3548 1103 c7 -3 16 -2 19 1 4 3 -2 6 -13 5 -11 0 -14 -3 -6 -6z"/>
<path d="M3548 833 c7 -3 16 -2 19 1 4 3 -2 6 -13 5 -11 0 -14 -3 -6 -6z"/>
<path d="M3499 813 c-13 -16 -12 -17 4 -4 9 7 17 15 17 17 0 8 -8 3 -21 -13z"/>
<path d="M3600 810 c11 -11 20 -31 20 -45 0 -14 -9 -34 -20 -45 -11 -11 -16
-20 -11 -20 15 0 41 42 41 65 0 23 -26 65 -41 65 -5 0 0 -9 11 -20z"/>
<path d="M703 813 c13 -3 17 -15 17 -54 0 -27 5 -49 10 -49 6 0 10 22 10 49 0
39 4 51 18 54 9 3 -3 5 -28 5 -25 0 -37 -2 -27 -5z"/>
<path d="M780 817 c0 -4 7 -18 15 -31 14 -21 14 -25 -6 -49 -11 -15 -16 -27
-10 -27 6 0 16 10 22 22 l12 22 15 -22 c8 -12 19 -22 24 -22 5 0 1 12 -10 27
-18 25 -18 29 -5 50 9 13 24 23 34 23 16 0 19 -8 19 -50 0 -27 5 -50 10 -50 6
0 10 22 10 49 0 39 4 51 18 54 9 3 -6 5 -33 6 -41 1 -53 -3 -64 -21 l-13 -21
-19 24 c-10 13 -19 20 -19 16z"/>
<path d="M4513 813 c9 -2 25 -2 35 0 9 3 1 5 -18 5 -19 0 -27 -2 -17 -5z"/>
<path d="M4650 816 c0 -2 9 -6 20 -9 11 -3 18 -1 14 4 -5 9 -34 13 -34 5z"/>
<path d="M4870 816 c0 -2 9 -6 20 -9 11 -3 18 -1 14 4 -5 9 -34 13 -34 5z"/>
<path d="M5030 816 c0 -2 9 -6 20 -9 11 -3 18 -1 14 4 -5 9 -34 13 -34 5z"/>
<path d="M5620 816 c0 -2 11 -6 25 -8 13 -3 22 -1 19 3 -5 9 -44 13 -44 5z"/>
<path d="M5700 811 c0 -6 4 -13 10 -16 6 -3 7 1 4 9 -7 18 -14 21 -14 7z"/>
<path d="M6318 813 c6 -2 18 -2 25 0 6 3 1 5 -13 5 -14 0 -19 -2 -12 -5z"/>
<path d="M6582 803 c-4 -10 -5 -36 -1 -58 l6 -40 3 40 c1 22 2 44 1 49 -1 5 4
13 11 17 9 6 10 9 1 9 -7 0 -16 -8 -21 -17z"/>
<path d="M4734 798 c-4 -6 -3 -8 4 -4 7 4 12 -10 15 -41 l3 -48 2 53 c2 49 -8
66 -24 40z"/>
<path d="M5234 798 c-4 -6 -3 -8 4 -4 7 4 12 -10 15 -41 l3 -48 2 53 c2 49 -8
66 -24 40z"/>
<path d="M5424 798 c-4 -6 -3 -8 4 -4 7 4 12 -10 15 -41 l3 -48 2 53 c2 49 -8
66 -24 40z"/>
<path d="M5491 784 c0 -11 3 -14 6 -6 3 7 2 16 -1 19 -3 4 -6 -2 -5 -13z"/>
<path d="M5542 770 c0 -19 2 -27 5 -17 2 9 2 25 0 35 -3 9 -5 1 -5 -18z"/>
<path d="M6470 786 c0 -2 9 -6 20 -9 11 -3 18 -1 14 4 -5 9 -34 13 -34 5z"/>
<path d="M6632 778 c-24 -24 -6 -69 28 -67 9 0 6 4 -7 9 -14 6 -23 18 -23 30
0 12 9 24 23 30 13 5 16 9 7 9 -9 1 -21 -4 -28 -11z"/>
<path d="M6860 786 c0 -2 9 -6 20 -9 11 -3 18 -1 14 4 -5 9 -34 13 -34 5z"/>
<path d="M3481 764 c0 -11 3 -14 6 -6 3 7 2 16 -1 19 -3 4 -6 -2 -5 -13z"/>
<path d="M3560 765 c-7 -8 -17 -12 -23 -8 -6 4 -7 1 -3 -6 6 -9 13 -8 27 5 10
9 19 19 19 21 0 7 -8 2 -20 -12z"/>
<path d="M5102 760 c0 -14 2 -19 5 -12 2 6 2 18 0 25 -3 6 -5 1 -5 -13z"/>
<path d="M5120 776 c0 -2 9 -6 20 -9 11 -3 18 -1 14 4 -5 9 -34 13 -34 5z"/>
<path d="M6318 763 c6 -2 18 -2 25 0 6 3 1 5 -13 5 -14 0 -19 -2 -12 -5z"/>
<path d="M6450 750 c0 -21 20 -40 40 -39 9 0 6 4 -7 9 -31 13 -29 28 5 32 26
3 26 4 -5 9 -26 4 -33 2 -33 -11z"/>
<path d="M6682 750 c0 -14 2 -19 5 -12 2 6 2 18 0 25 -3 6 -5 1 -5 -13z"/>
<path d="M6752 750 c0 -14 2 -19 5 -12 2 6 2 18 0 25 -3 6 -5 1 -5 -13z"/>
<path d="M6840 750 c0 -21 20 -40 40 -39 9 0 6 4 -7 9 -31 13 -29 28 5 32 26
3 26 4 -5 9 -26 4 -33 2 -33 -11z"/>
<path d="M5508 753 c7 -3 16 -2 19 1 4 3 -2 6 -13 5 -11 0 -14 -3 -6 -6z"/>
<path d="M5628 753 c7 -3 16 -2 19 1 4 3 -2 6 -13 5 -11 0 -14 -3 -6 -6z"/>
<path d="M3490 726 c0 -2 8 -10 18 -17 15 -13 16 -12 3 4 -13 16 -21 21 -21
13z"/>
<path d="M4640 718 c0 -4 14 -8 30 -8 17 0 30 2 30 4 0 2 -13 6 -30 8 -16 3
-30 1 -30 -4z"/>
<path d="M4860 718 c0 -4 14 -8 30 -8 17 0 30 2 30 4 0 2 -13 6 -30 8 -16 3
-30 1 -30 -4z"/>
<path d="M5020 718 c0 -4 14 -8 30 -8 17 0 30 2 30 4 0 2 -13 6 -30 8 -16 3
-30 1 -30 -4z"/>
<path d="M5118 718 c5 -5 16 -8 23 -6 8 3 3 7 -10 11 -17 4 -21 3 -13 -5z"/>
<path d="M5515 720 c-16 -7 -17 -9 -3 -9 9 -1 20 4 23 9 7 11 7 11 -20 0z"/>
<path d="M3548 693 c7 -3 16 -2 19 1 4 3 -2 6 -13 5 -11 0 -14 -3 -6 -6z"/>
<path d="M3548 423 c7 -3 16 -2 19 1 4 3 -2 6 -13 5 -11 0 -14 -3 -6 -6z"/>
<path d="M3499 403 c-13 -16 -12 -17 4 -4 16 13 21 21 13 21 -2 0 -10 -8 -17
-17z"/>
<path d="M3600 400 c11 -11 20 -31 20 -45 0 -14 -9 -34 -20 -45 -11 -11 -16
-20 -11 -20 15 0 41 42 41 65 0 23 -26 65 -41 65 -5 0 0 -9 11 -20z"/>
<path d="M708 355 c8 -30 19 -55 23 -55 5 0 11 16 15 35 3 19 10 35 15 35 4 0
11 -16 15 -35 3 -19 10 -35 15 -35 5 0 9 3 9 8 0 4 7 28 15 55 8 26 10 47 5
47 -4 0 -11 -18 -15 -40 -8 -47 -20 -45 -29 5 -9 47 -23 44 -31 -5 -4 -22 -10
-40 -15 -40 -5 0 -11 18 -15 40 -4 22 -10 40 -15 40 -4 0 0 -25 8 -55z"/>
<path d="M843 355 c-12 -30 -17 -55 -12 -55 5 0 9 7 9 15 0 10 10 15 30 15 20
0 30 -5 30 -15 0 -8 4 -15 9 -15 5 0 0 25 -12 55 -11 30 -23 55 -27 55 -4 0
-16 -25 -27 -55z m47 -7 c0 -4 -9 -8 -21 -8 -15 0 -19 4 -15 16 3 9 6 21 6 27
1 13 30 -22 30 -35z"/>
<path d="M929 358 c10 -29 22 -52 27 -51 11 2 45 103 35 103 -5 0 -14 -20 -20
-45 -6 -25 -13 -45 -16 -45 -3 0 -10 20 -16 45 -6 25 -15 45 -20 45 -4 0 0
-24 10 -52z"/>
<path d="M4513 403 c9 -2 25 -2 35 0 9 3 1 5 -18 5 -19 0 -27 -2 -17 -5z"/>
<path d="M4650 406 c0 -2 9 -6 20 -9 11 -3 18 -1 14 4 -5 9 -34 13 -34 5z"/>
<path d="M4870 406 c0 -2 9 -6 20 -9 11 -3 18 -1 14 4 -5 9 -34 13 -34 5z"/>
<path d="M5030 406 c0 -2 9 -6 20 -9 11 -3 18 -1 14 4 -5 9 -34 13 -34 5z"/>
<path d="M5340 406 c0 -2 9 -6 20 -9 11 -3 18 -1 14 4 -5 9 -34 13 -34 5z"/>
<path d="M5540 406 c0 -2 11 -6 25 -8 13 -3 22 -1 19 3 -5 9 -44 13 -44 5z"/>
<path d="M5620 401 c0 -6 4 -13 10 -16 6 -3 7 1 4 9 -7 18 -14 21 -14 7z"/>
<path d="M6318 403 c6 -2 18 -2 25 0 6 3 1 5 -13 5 -14 0 -19 -2 -12 -5z"/>
<path d="M6582 393 c-4 -10 -5 -36 -1 -58 l6 -40 3 40 c1 22 2 44 1 49 -1 5 4
13 11 17 9 6 10 9 1 9 -7 0 -16 -8 -21 -17z"/>
<path d="M4734 388 c-4 -6 -3 -8 4 -4 7 4 12 -10 15 -41 l3 -48 2 53 c2 49 -8
66 -24 40z"/>
<path d="M5221 374 c0 -11 3 -14 6 -6 3 7 2 16 -1 19 -3 4 -6 -2 -5 -13z"/>
<path d="M5272 360 c0 -19 2 -27 5 -17 2 9 2 25 0 35 -3 9 -5 1 -5 -18z"/>
<path d="M5411 374 c0 -11 3 -14 6 -6 3 7 2 16 -1 19 -3 4 -6 -2 -5 -13z"/>
<path d="M5462 360 c0 -19 2 -27 5 -17 2 9 2 25 0 35 -3 9 -5 1 -5 -18z"/>
<path d="M6470 376 c0 -2 9 -6 20 -9 11 -3 18 -1 14 4 -5 9 -34 13 -34 5z"/>
<path d="M6632 368 c-24 -24 -6 -69 28 -67 9 0 6 4 -7 9 -14 6 -23 18 -23 30
0 12 9 24 23 30 13 5 16 9 7 9 -9 1 -21 -4 -28 -11z"/>
<path d="M6860 376 c0 -2 9 -6 20 -9 11 -3 18 -1 14 4 -5 9 -34 13 -34 5z"/>
<path d="M3481 354 c0 -11 3 -14 6 -6 3 7 2 16 -1 19 -3 4 -6 -2 -5 -13z"/>
<path d="M3560 355 c-7 -8 -17 -12 -23 -8 -6 4 -7 1 -3 -6 6 -9 13 -8 27 5 10
9 19 19 19 21 0 7 -8 2 -20 -12z"/>
<path d="M5102 350 c0 -14 2 -19 5 -12 2 6 2 18 0 25 -3 6 -5 1 -5 -13z"/>
<path d="M5120 366 c0 -2 9 -6 20 -9 11 -3 18 -1 14 4 -5 9 -34 13 -34 5z"/>
<path d="M6318 353 c6 -2 18 -2 25 0 6 3 1 5 -13 5 -14 0 -19 -2 -12 -5z"/>
<path d="M6450 340 c0 -21 20 -40 40 -39 9 0 6 4 -7 9 -31 13 -29 28 5 32 26
3 26 4 -5 9 -26 4 -33 2 -33 -11z"/>
<path d="M6682 340 c0 -14 2 -19 5 -12 2 6 2 18 0 25 -3 6 -5 1 -5 -13z"/>
<path d="M6752 340 c0 -14 2 -19 5 -12 2 6 2 18 0 25 -3 6 -5 1 -5 -13z"/>
<path d="M6840 340 c0 -21 20 -40 40 -39 9 0 6 4 -7 9 -31 13 -29 28 5 32 26
3 26 4 -5 9 -26 4 -33 2 -33 -11z"/>
<path d="M5238 343 c7 -3 16 -2 19 1 4 3 -2 6 -13 5 -11 0 -14 -3 -6 -6z"/>
<path d="M5428 343 c7 -3 16 -2 19 1 4 3 -2 6 -13 5 -11 0 -14 -3 -6 -6z"/>
<path d="M5548 343 c7 -3 16 -2 19 1 4 3 -2 6 -13 5 -11 0 -14 -3 -6 -6z"/>
<path d="M3490 316 c0 -2 8 -10 18 -17 15 -13 16 -12 3 4 -13 16 -21 21 -21
13z"/>
<path d="M4640 308 c0 -4 14 -8 30 -8 17 0 30 2 30 4 0 2 -13 6 -30 8 -16 3
-30 1 -30 -4z"/>
<path d="M4860 308 c0 -4 14 -8 30 -8 17 0 30 2 30 4 0 2 -13 6 -30 8 -16 3
-30 1 -30 -4z"/>
<path d="M5020 308 c0 -4 14 -8 30 -8 17 0 30 2 30 4 0 2 -13 6 -30 8 -16 3
-30 1 -30 -4z"/>
<path d="M5118 308 c5 -5 16 -8 23 -6 8 3 3 7 -10 11 -17 4 -21 3 -13 -5z"/>
<path d="M5245 310 c-16 -7 -17 -9 -3 -9 9 -1 20 4 23 9 7 11 7 11 -20 0z"/>
<path d="M5330 308 c0 -4 14 -8 30 -8 17 0 30 2 30 4 0 2 -13 6 -30 8 -16 3
-30 1 -30 -4z"/>
<path d="M5435 310 c-16 -7 -17 -9 -3 -9 9 -1 20 4 23 9 7 11 7 11 -20 0z"/>
<path d="M3548 283 c7 -3 16 -2 19 1 4 3 -2 6 -13 5 -11 0 -14 -3 -6 -6z"/>
</g>
</svg>
